<svg version="1.2" xmlns="http://www.w3.org/2000/svg" viewBox="0 0 1381 817" width="1381" height="817"><defs><linearGradient id="P" gradientUnits="userSpaceOnUse"/><linearGradient id="g1" x2="1" href="#P" gradientTransform="matrix(NaN,NaN,NaN,NaN,NaN,NaN)"><stop stop-color="#171717"/><stop offset="1" stop-color="#8c8c8c"/></linearGradient><linearGradient id="g2" x2="1" href="#P" gradientTransform="matrix(0,0,0,0,NaN,NaN)"><stop stop-color="#171717"/><stop offset="1" stop-color="#8c8c8c"/></linearGradient><linearGradient id="g3" x2="1" href="#P" gradientTransform="matrix(NaN,NaN,NaN,NaN,NaN,NaN)"><stop stop-color="#171717"/><stop offset="1" stop-color="#8c8c8c"/></linearGradient></defs><style>tspan{white-space:pre}.a{opacity:.8;fill:none;stroke:url(#g1);stroke-width:4;stroke-dasharray:15,15}.b{opacity:.8;fill:none;stroke:url(#g2);stroke-width:4;stroke-dasharray:15,15}.c{opacity:.8;fill:none;stroke:url(#g3);stroke-width:4;stroke-dasharray:15,15}.d{fill:#171717;stroke:#262626;stroke-width:4}.e{fill:#020202}.f{fill:#3b82f6}.g{fill:#404040}.h{fill:#737373}.i{font-size: 257px;fill: #ffffff;font-weight: 400;font-family: "ABeeZee-Regular", "ABeeZee"}</style><path fill-rule="evenodd" class="a" d="m133 601h1112"/><path fill-rule="evenodd" class="b" d="m231 708h1112"/><path fill-rule="evenodd" class="c" d="m269 815h1112"/><path fill-rule="evenodd" class="d" d="m181 2h1013c40.3 0 73 32.7 73 73v214c0 40.3-32.7 73-73 73h-1013c-40.3 0-73-32.7-73-73v-214c0-40.3 32.7-73 73-73z"/><path fill-rule="evenodd" class="e" d="m223 63.1h283c21 0 38 17 38 38v178.8c0 21-17 38-38 38h-283c-21 0-38-17-38-38v-178.8c0-21 17-38 38-38z"/><path class="f" d="m415 189.6c-0.2-0.9-0.6-1.7-1.3-2.4-0.6-0.6-1.4-1.1-2.3-1.3l-32.7-8.2 12.1-28.3c0.4-1 0.5-2.1 0.2-3.1-0.3-1-0.9-1.9-1.7-2.6-0.9-0.6-1.9-1-3-1-1.1 0.1-2.1 0.4-2.9 1.1l-52.5 43c-0.7 0.6-1.2 1.3-1.5 2.1-0.3 0.9-0.4 1.8-0.2 2.6 0.2 0.9 0.6 1.7 1.3 2.3 0.6 0.7 1.4 1.1 2.2 1.3l32.1 8.1-16 27.9c-0.4 0.7-0.6 1.6-0.6 2.4 0 0.8 0.2 1.7 0.6 2.4 0.5 0.7 1.1 1.3 1.8 1.7 0.7 0.4 1.5 0.7 2.4 0.7 1 0 2-0.4 2.8-1l57.3-43c0.8-0.5 1.3-1.3 1.6-2.1 0.4-0.8 0.4-1.8 0.3-2.6z"/><path class="g" d="m638.8 75.6v36.4h-4.4v-36.4zm37.7 0v36.4h-4.3l-19.8-28.6h-0.4v28.6h-4.4v-36.4h4.3l19.9 28.7h0.3v-28.7zm22.9 36.4v-36.4h12.3q4.3 0 7 1.5 2.7 1.4 4 4 1.4 2.5 1.4 5.7 0 3.2-1.4 5.7-1.3 2.5-4 3.9-2.7 1.4-6.9 1.4h-10v-4h9.8q2.9 0 4.7-0.8 1.8-0.9 2.6-2.4 0.8-1.6 0.8-3.8 0-2.2-0.8-3.8-0.8-1.7-2.6-2.6-1.8-0.9-4.7-0.9h-7.8v32.5zm17.1-16.3l9 16.3h-5.1l-8.8-16.3zm14.8 16.3v-36.4h22v3.9h-17.6v12.3h16.4v3.9h-16.4v12.4h17.9v3.9zm31.3-36.4l10.8 30.6h0.4l10.8-30.6h4.7l-13.4 36.4h-4.5l-13.4-36.4zm36.7 0v36.4h-4.4v-36.4zm8.8 36.4v-36.4h22v3.9h-17.6v12.3h16.4v3.9h-16.4v12.4h17.9v3.9zm36.5 0l-10-36.4h4.5l7.6 29.7h0.3l7.8-29.7h5l7.7 29.7h0.4l7.5-29.7h4.5l-9.9 36.4h-4.6l-8-29h-0.3l-8 29z"/><path fill-rule="evenodd" class="g" d="m599.5 113c-10.8 0-19.5-8.7-19.5-19.5 0-10.8 8.7-19.5 19.5-19.5 10.8 0 19.5 8.7 19.5 19.5 0 10.8-8.7 19.5-19.5 19.5z"/><path fill-rule="evenodd" class="d" d="m107 106h1161c40.3 0 73 32.7 73 73v260c0 40.3-32.7 73-73 73h-1161c-40.3 0-73-32.7-73-73v-260c0-40.3 32.7-73 73-73z"/><path class="h" d="m557.4 440v-35.3h-11.7v-3.9h28.1v3.9h-11.7v35.3zm29.5 0.7q-3.9 0-7.1-1.8-3.1-1.9-4.9-5.2-1.8-3.3-1.8-7.8 0-4.5 1.8-7.8 1.8-3.4 5-5.1 3.2-1.9 7.1-1.9 4 0 7.1 1.9 3.1 1.7 4.9 5.1 1.9 3.3 1.9 7.8 0 4.5-1.9 7.8-1.8 3.3-4.9 5.2-3.2 1.8-7.2 1.8zm0-4.1q2.4 0 4.5-1.1 2.1-1.3 3.4-3.7 1.3-2.4 1.3-5.9 0-3.6-1.3-5.9-1.3-2.5-3.3-3.6-2-1.3-4.5-1.3-2.4 0-4.5 1.3-2.1 1.1-3.3 3.6-1.3 2.3-1.3 5.9 0 3.5 1.3 5.9 1.2 2.4 3.3 3.7 2 1.1 4.4 1.1zm33 4.1q-4.1 0-7.2-1.9-3-2-4.7-5.4-1.7-3.3-1.7-7.6 0-4.2 1.7-7.5 1.7-3.4 4.7-5.3 3.2-1.9 7.3-1.9 3.4 0 6 1.4 2.6 1.4 4 3.9v-16.7h4.8v40.3h-4.3l-0.4-4.6q-0.9 1.4-2.3 2.6-1.4 1.2-3.4 1.9-1.9 0.8-4.5 0.8zm0.6-4.1q2.8 0 4.9-1.4 2.1-1.3 3.3-3.7 1.2-2.4 1.2-5.6 0-3.2-1.2-5.6-1.2-2.4-3.3-3.8-2.1-1.3-4.9-1.3-2.8 0-4.9 1.3-2.1 1.4-3.3 3.8-1.2 2.4-1.2 5.6 0 3.2 1.2 5.6 1.2 2.4 3.3 3.7 2.1 1.4 4.9 1.4zm31.3 4.1q-3.4 0-5.7-1.2-2.3-1.2-3.5-3.2-1.1-2-1.1-4.4 0-2.8 1.5-4.8 1.5-2 4.2-3 2.7-1.1 6.4-1.1h7.5q0-2.6-0.9-4.3-0.8-1.8-2.3-2.7-1.5-0.9-3.8-0.9-2.7 0-4.7 1.3-1.9 1.4-2.4 4h-4.8q0.3-3 2-5 1.7-2.1 4.4-3.2 2.6-1.1 5.5-1.1 3.9 0 6.5 1.5 2.6 1.4 3.9 3.9 1.3 2.6 1.3 6v17.5h-4.2l-0.3-5q-0.6 1.2-1.5 2.3-0.8 1-2 1.7-1.2 0.8-2.7 1.2-1.4 0.5-3.3 0.5zm0.7-4q2 0 3.5-0.8 1.7-0.8 2.8-2.2 1.1-1.5 1.7-3.2 0.6-1.8 0.6-3.7v-0.1h-7.1q-2.7 0-4.4 0.6-1.7 0.7-2.4 1.8-0.7 1.2-0.7 2.6 0 1.5 0.6 2.6 0.8 1.2 2.1 1.8 1.4 0.6 3.3 0.6zm22.8 15.6l6.9-15.4h-1.6l-11.1-25.1h5.1l9.2 21.5 9.6-21.5h4.9l-18.1 40.5zm21-5.4l3.2-12.4h4.9l-4.9 12.4zm33.4-6.9v-33.9l-6.7 1.6v-3.3l8.2-3.6h3.2v39.2zm28.2 0.7q-5.2 0-8.9-2.5-3.7-2.6-5.7-7.2-1.9-4.6-1.9-10.6 0-6 1.9-10.6 2-4.6 5.7-7.1 3.7-2.6 8.9-2.6 5.1 0 8.8 2.6 3.7 2.5 5.6 7.1 2 4.6 2 10.6 0 6-2 10.6-1.9 4.6-5.6 7.2-3.7 2.5-8.8 2.5zm-0.1-4.2q3.4 0 6-1.9 2.6-1.9 4.2-5.5 1.5-3.7 1.5-8.7 0-5-1.5-8.6-1.6-3.7-4.2-5.6-2.6-1.9-6-1.9-3.3 0-6 1.9-2.7 1.9-4.2 5.6-1.4 3.6-1.4 8.6 0 5 1.4 8.7 1.5 3.6 4.2 5.5 2.7 1.9 6 1.9zm24.7 3.8q-1.4 0-2.3-0.9-0.9-1-0.9-2.3 0-1.4 0.9-2.3 0.9-0.9 2.3-0.9 1.4 0 2.3 0.9 0.9 0.9 0.9 2.3 0 1.3-0.9 2.3-0.9 0.9-2.3 0.9zm0-22.8q-1.4 0-2.3-0.9-0.9-1-0.9-2.3 0-1.3 0.9-2.2 0.9-1 2.3-1 1.4 0 2.3 1 0.9 0.9 0.9 2.2 0 1.3-0.9 2.3-0.9 0.9-2.3 0.9zm9.3 22.5v-3.3q4-3.1 7.6-6.3 3.6-3.2 6.4-6.4 2.8-3.2 4.4-6.2 1.6-3 1.6-5.8 0-2.1-0.7-3.8-0.7-1.8-2.3-2.9-1.6-1.1-4.3-1.1-2.6 0-4.4 1.1-1.7 1.2-2.6 3.1-0.8 1.8-0.8 4h-4.6q0.1-3.8 1.7-6.6 1.6-2.8 4.4-4.2 2.8-1.5 6.4-1.5 3.5 0 6.2 1.4 2.7 1.3 4.2 3.8 1.5 2.6 1.5 6.5 0 2.8-1.1 5.5-1.2 2.8-3.1 5.4-1.9 2.6-4.2 5-2.3 2.4-4.8 4.5-2.4 2.1-4.5 3.9h19.1v3.9zm46.1 0.7q-4 0-7-1.5-2.9-1.4-4.7-4-1.6-2.5-2.1-5.6h4.6q0.7 3.1 3.1 5.1 2.4 1.9 6.1 1.9 2.8 0 4.8-1.2 2-1.3 3.1-3.6 1.1-2.2 1.1-5 0-2.8-1.1-5-1.1-2.2-3.1-3.4-2-1.2-4.6-1.2-3.2 0-5.4 1.4-2.3 1.4-3.4 3.6h-4.5l3.2-21.4h20.8v4.1h-17.1l-2.2 12q1.4-1.6 3.7-2.6 2.3-1.1 5.4-1.1 2.9 0 5.3 1 2.3 1 4 2.9 1.7 1.8 2.6 4.3 0.9 2.5 0.9 5.4 0 2.8-0.9 5.4-0.9 2.4-2.6 4.4-1.8 1.9-4.3 3-2.5 1.1-5.7 1.1z"/><path class="f" d="m633.2 175.6v36.4h-4.2l-19.8-28.6h-0.4v28.6h-4.4v-36.4h4.3l19.9 28.7h0.3v-28.7zm8.8 36.4v-36.4h22v3.9h-17.6v12.3h16.4v3.9h-16.4v12.4h17.8v3.9zm36.5 0l-9.9-36.4h4.5l7.6 29.7h0.3l7.8-29.7h4.9l7.8 29.7h0.3l7.6-29.7h4.5l-9.9 36.4h-4.6l-8-29h-0.3l-8 29z"/><path fill-rule="evenodd" class="f" d="m563.5 213c-10.8 0-19.5-8.7-19.5-19.5 0-10.8 8.7-19.5 19.5-19.5 10.8 0 19.5 8.7 19.5 19.5 0 10.8-8.7 19.5-19.5 19.5z"/><path fill-rule="evenodd" class="e" d="m150 174h287c25.4 0 46 20.6 46 46v177c0 25.4-20.6 46-46 46h-287c-25.4 0-46-20.6-46-46v-177c0-25.4 20.6-46 46-46z"/><path class="f" d="m346.8 307.5c-0.2-0.9-0.7-1.8-1.3-2.5-0.7-0.7-1.5-1.2-2.4-1.4l-34.6-8.6 12.8-29.9c0.4-1 0.5-2.2 0.2-3.3-0.3-1.1-0.9-2-1.8-2.7-0.9-0.7-2-1-3.2-1-1.1 0-2.2 0.4-3.1 1.1l-55.4 45.4c-0.7 0.6-1.3 1.4-1.6 2.3-0.3 0.8-0.4 1.8-0.1 2.7 0.2 0.9 0.6 1.8 1.3 2.4 0.6 0.7 1.4 1.2 2.3 1.4l33.9 8.5-16.8 29.5c-0.5 0.7-0.7 1.6-0.7 2.5 0 0.9 0.2 1.7 0.7 2.5 0.4 0.8 1.1 1.4 1.8 1.8 0.8 0.5 1.7 0.7 2.5 0.7 1.1 0 2.2-0.3 3.1-1l60.5-45.4c0.7-0.5 1.3-1.3 1.6-2.2 0.4-0.9 0.5-1.9 0.3-2.8z"/><text style="transform:matrix(.336,0,0,.336,544.279,338.115)" ><tspan x="0" y="0" class="i">F</tspan><tspan  y="0" class="i">o</tspan><tspan  y="0" class="i">o</tspan><tspan  y="0" class="i">t</tspan><tspan  y="0" class="i">p</tspan><tspan  y="0" class="i">r</tspan><tspan  y="0" class="i">i</tspan><tspan  y="0" class="i">n</tspan><tspan  y="0" class="i">t</tspan><tspan  y="0" class="i"> </tspan><tspan  y="0" class="i">T</tspan><tspan  y="0" class="i">r</tspan><tspan  y="0" class="i">a</tspan><tspan  y="0" class="i">d</tspan><tspan  y="0" class="i">i</tspan><tspan  y="0" class="i">n</tspan><tspan  y="0" class="i">g</tspan><tspan  y="0" class="i">
</tspan></text></svg>