<svg version="1.2" xmlns="http://www.w3.org/2000/svg" viewBox="0 0 604 398" width="604" height="398"><style>tspan{white-space:pre}.a{opacity:.01;fill:#fff}.b{opacity:.1;fill:none;stroke:#fff}.c{fill:#3b82f6}.d{fill:#fff}.e{font-size: 26px;fill: #ffffff;font-weight: 400;font-family: "ABeeZee-Regular", "ABeeZee"}.f{fill:#2c2c2c}</style><path class="a" d="m0 0h604v331c0 37-30 67-67 67h-470c-37 0-67-30-67-67z"/><path class="b" d="m0.5 0.5h603v330.5c0 36.7-29.8 66.5-66.5 66.5h-470c-36.7 0-66.5-29.8-66.5-66.5z"/><path fill-rule="evenodd" class="c" d="m83 120.7c-22 0-39.8-17.8-39.8-39.9 0-22 17.8-39.8 39.8-39.8 22 0 39.8 17.8 39.8 39.8 0 22.1-17.8 39.9-39.8 39.9z"/><path class="d" d="m83 74.9q0.4 0 0.7 0.1 0.3 0.1 0.6 0.4l6.4 6.3q0.6 0.5 0.6 1.2-0.1 0.7-0.6 1.3-0.5 0.5-1.2 0.5-0.8 0-1.3-0.5l-3.4-3.3v12.6q0 0.7-0.5 1.2-0.5 0.5-1.3 0.5-0.8 0-1.3-0.5-0.5-0.5-0.5-1.2v-12.6l-3.4 3.3q-0.5 0.5-1.3 0.5-0.7 0-1.2-0.5-0.5-0.6-0.6-1.3 0-0.7 0.6-1.2l6.4-6.3q0.3-0.3 0.6-0.4 0.3-0.1 0.7-0.1zm10.8-7.8q1.5 0 2.5 1 1.1 1.1 1.1 2.5v3.5q0 0.8-0.5 1.3-0.5 0.5-1.3 0.5-0.8 0-1.3-0.5-0.5-0.5-0.5-1.3v-3.5h-21.6v3.5q0 0.8-0.5 1.3-0.5 0.5-1.3 0.5-0.8 0-1.3-0.5-0.5-0.5-0.5-1.3v-3.5q0-1.4 1.1-2.5 1-1 2.5-1z"/><text style="transform:matrix(1.036,0,0,1.036,147,72.719)" ><tspan x="0" y="0" class="e">W</tspan><tspan  y="0" class="e">i</tspan><tspan  y="0" class="e">t</tspan><tspan  y="0" class="e">h</tspan><tspan  y="0" class="e">d</tspan><tspan  y="0" class="e">r</tspan><tspan  y="0" class="e">a</tspan><tspan  y="0" class="e">w</tspan><tspan  y="0" class="e">a</tspan><tspan  y="0" class="e">l</tspan><tspan  y="0" class="e"> </tspan><tspan  y="0" class="e">S</tspan><tspan  y="0" class="e">u</tspan><tspan  y="0" class="e">c</tspan><tspan  y="0" class="e">c</tspan><tspan  y="0" class="e">e</tspan><tspan  y="0" class="e">s</tspan><tspan  y="0" class="e">s</tspan><tspan  y="0" class="e">f</tspan><tspan  y="0" class="e">u</tspan><tspan  y="0" class="e">l</tspan><tspan  y="0" class="e">l
</tspan></text><path fill-rule="evenodd" class="f" d="m157 100h385c5.5 0 10 4.5 10 10 0 5.5-4.5 10-10 10h-385c-5.5 0-10-4.5-10-10 0-5.5 4.5-10 10-10z"/><path fill-rule="evenodd" class="c" d="m82.8 234.7c-22 0-39.8-17.8-39.8-39.9 0-22 17.8-39.8 39.8-39.8 22.1 0 39.9 17.8 39.9 39.8 0 22.1-17.8 39.9-39.9 39.9z"/><path class="d" d="m82.8 188.9q0.4 0 0.7 0.1 0.3 0.1 0.6 0.4l6.5 6.3q0.5 0.5 0.5 1.2 0 0.7-0.5 1.3-0.6 0.5-1.3 0.5-0.8 0-1.3-0.5l-3.4-3.3v12.6q0 0.7-0.5 1.2-0.5 0.5-1.3 0.5-0.7 0-1.3-0.5-0.5-0.5-0.5-1.2v-12.6l-3.3 3.3q-0.6 0.5-1.3 0.5-0.8 0-1.3-0.5-0.5-0.6-0.5-1.3 0-0.7 0.5-1.2l6.5-6.3q0.2-0.3 0.6-0.4 0.3-0.1 0.6-0.1zm10.8-7.8q1.5 0 2.6 1 1 1.1 1 2.5v3.5q0 0.8-0.5 1.3-0.5 0.5-1.3 0.5-0.7 0-1.3-0.5-0.5-0.5-0.5-1.3v-3.5h-21.6v3.5q0 0.8-0.5 1.3-0.5 0.5-1.3 0.5-0.7 0-1.2-0.5-0.6-0.5-0.6-1.3v-3.5q0-1.4 1.1-2.5 1.1-1 2.5-1z"/><text style="transform:matrix(1.036,0,0,1.036,147,187.719)" ><tspan x="0" y="0" class="e">W</tspan><tspan  y="0" class="e">i</tspan><tspan  y="0" class="e">t</tspan><tspan  y="0" class="e">h</tspan><tspan  y="0" class="e">d</tspan><tspan  y="0" class="e">r</tspan><tspan  y="0" class="e">a</tspan><tspan  y="0" class="e">w</tspan><tspan  y="0" class="e">a</tspan><tspan  y="0" class="e">l</tspan><tspan  y="0" class="e"> </tspan><tspan  y="0" class="e">S</tspan><tspan  y="0" class="e">u</tspan><tspan  y="0" class="e">c</tspan><tspan  y="0" class="e">c</tspan><tspan  y="0" class="e">e</tspan><tspan  y="0" class="e">s</tspan><tspan  y="0" class="e">s</tspan><tspan  y="0" class="e">f</tspan><tspan  y="0" class="e">u</tspan><tspan  y="0" class="e">l</tspan><tspan  y="0" class="e">l
</tspan></text><path fill-rule="evenodd" class="f" d="m156.8 214h385c5.6 0 10 4.5 10 10 0 5.5-4.4 10-10 10h-385c-5.5 0-10-4.5-10-10 0-5.5 4.5-10 10-10z"/><path fill-rule="evenodd" class="c" d="m82.8 348.7c-22 0-39.8-17.8-39.8-39.9 0-22 17.8-39.8 39.8-39.8 22.1 0 39.9 17.8 39.9 39.8 0 22.1-17.8 39.9-39.9 39.9z"/><path class="d" d="m82.8 315.4q-0.3 0-0.6-0.1-0.4-0.1-0.6-0.3l-6.5-6.4q-0.5-0.5-0.5-1.2 0-0.7 0.5-1.2 0.5-0.5 1.3-0.6 0.7 0 1.3 0.5l3.3 3.3v-12.5q0-0.8 0.6-1.3 0.5-0.5 1.2-0.5 0.8 0 1.3 0.5 0.5 0.5 0.5 1.3v12.5l3.4-3.3q0.5-0.5 1.3-0.5 0.7 0.1 1.3 0.6 0.5 0.5 0.5 1.2 0 0.7-0.5 1.2l-6.5 6.4q-0.3 0.2-0.6 0.3-0.3 0.2-0.7 0.1zm-10.8 7.8q-1.4 0-2.5-1-1.1-1-1.1-2.5v-3.5q0-0.8 0.6-1.3 0.5-0.5 1.2-0.5 0.8 0 1.3 0.5 0.5 0.6 0.5 1.3v3.5h21.6v-3.5q0-0.8 0.5-1.3 0.6-0.5 1.3-0.5 0.8 0 1.3 0.5 0.5 0.6 0.5 1.3v3.5q0 1.5-1 2.5-1.1 1-2.6 1z"/><text style="transform:matrix(1.036,0,0,1.036,147,303.719)" ><tspan x="0" y="0" class="e">D</tspan><tspan  y="0" class="e">e</tspan><tspan  y="0" class="e">p</tspan><tspan  y="0" class="e">o</tspan><tspan  y="0" class="e">s</tspan><tspan  y="0" class="e">i</tspan><tspan  y="0" class="e">t</tspan><tspan  y="0" class="e"> </tspan><tspan  y="0" class="e">S</tspan><tspan  y="0" class="e">u</tspan><tspan  y="0" class="e">c</tspan><tspan  y="0" class="e">c</tspan><tspan  y="0" class="e">e</tspan><tspan  y="0" class="e">s</tspan><tspan  y="0" class="e">s</tspan><tspan  y="0" class="e">f</tspan><tspan  y="0" class="e">u</tspan><tspan  y="0" class="e">l</tspan><tspan  y="0" class="e">l
</tspan></text><path fill-rule="evenodd" class="f" d="m156.8 328h385c5.6 0 10 4.5 10 10 0 5.5-4.4 10-10 10h-385c-5.5 0-10-4.5-10-10 0-5.5 4.5-10 10-10z"/></svg>