<svg width="695" height="419" viewBox="0 0 695 419" fill="none" xmlns="http://www.w3.org/2000/svg">
<path d="M0 0H695V352C695 389.003 665.003 419 628 419H67C29.9969 419 0 389.003 0 352V0Z" fill="white" fill-opacity="0.01"/>
<path d="M0.5 0.5H694.5V352C694.5 388.727 664.727 418.5 628 418.5H67C30.2731 418.5 0.5 388.727 0.5 352V0.5Z" stroke="white" stroke-opacity="0.1"/>
<circle cx="118.5" cy="116.5" r="59.5" fill="#3B82F6"/>
<path d="M118.5 126.384C118.142 126.384 117.806 126.33 117.492 126.222C117.179 126.113 116.887 125.927 116.619 125.662L106.944 116.213C106.406 115.688 106.148 115.075 106.17 114.375C106.191 113.675 106.449 113.063 106.944 112.538C107.481 112.013 108.12 111.74 108.86 111.719C109.6 111.698 110.238 111.949 110.773 112.472L115.812 117.394V98.625C115.812 97.8813 116.07 97.2583 116.586 96.756C117.102 96.2538 117.74 96.0018 118.5 96C119.26 95.9983 119.898 96.2503 120.416 96.756C120.934 97.2618 121.191 97.8848 121.187 98.625V117.394L126.227 112.472C126.764 111.947 127.403 111.695 128.143 111.716C128.883 111.737 129.521 112.011 130.056 112.538C130.549 113.063 130.807 113.675 130.83 114.375C130.854 115.075 130.596 115.688 130.056 116.213L120.381 125.662C120.112 125.925 119.821 126.111 119.508 126.222C119.194 126.332 118.858 126.386 118.5 126.384ZM102.375 138C100.897 138 99.632 137.486 98.5802 136.459C97.5285 135.432 97.0018 134.195 97 132.75V127.5C97 126.756 97.258 126.133 97.774 125.631C98.29 125.129 98.9278 124.877 99.6875 124.875C100.447 124.873 101.086 125.125 101.604 125.631C102.121 126.137 102.379 126.76 102.375 127.5V132.75H134.625V127.5C134.625 126.756 134.883 126.133 135.399 125.631C135.915 125.129 136.553 124.877 137.312 124.875C138.072 124.873 138.711 125.125 139.229 125.631C139.746 126.137 140.004 126.76 140 127.5V132.75C140 134.194 139.474 135.43 138.422 136.459C137.371 137.488 136.105 138.002 134.625 138H102.375Z" fill="white"/>
<path d="M225.302 103L236.138 73.6H239.876L250.67 103H246.89L237.986 78.01L228.998 103H225.302ZM230.258 95.44L231.266 92.584H244.58L245.588 95.44H230.258ZM262.4 103.504C260.776 103.504 259.362 103.196 258.158 102.58C256.954 101.964 256.016 101.026 255.344 99.766C254.672 98.478 254.336 96.882 254.336 94.978V80.908H257.864V94.6C257.864 96.56 258.34 98.03 259.292 99.01C260.272 99.99 261.574 100.48 263.198 100.48C264.318 100.48 265.326 100.228 266.222 99.724C267.118 99.192 267.832 98.422 268.364 97.414C268.924 96.406 269.204 95.174 269.204 93.718V80.908H272.732V103H269.54L269.33 99.472C268.742 100.76 267.832 101.754 266.6 102.454C265.396 103.154 263.996 103.504 262.4 103.504ZM287.355 112.744C285.367 112.744 283.617 112.492 282.105 111.988C280.621 111.512 279.459 110.77 278.619 109.762C277.807 108.754 277.401 107.508 277.401 106.024C277.401 105.324 277.527 104.596 277.779 103.84C278.059 103.084 278.521 102.356 279.165 101.656C279.837 100.956 280.775 100.326 281.979 99.766L284.667 101.194C283.071 101.81 282.035 102.524 281.559 103.336C281.083 104.148 280.845 104.932 280.845 105.688C280.845 106.612 281.111 107.382 281.643 107.998C282.203 108.614 282.973 109.076 283.953 109.384C284.933 109.692 286.067 109.846 287.355 109.846C288.615 109.846 289.693 109.678 290.589 109.342C291.513 109.034 292.213 108.572 292.689 107.956C293.193 107.368 293.445 106.668 293.445 105.856C293.445 104.68 293.067 103.756 292.311 103.084C291.555 102.44 290.085 102.062 287.901 101.95C286.193 101.838 284.765 101.684 283.617 101.488C282.469 101.292 281.517 101.068 280.761 100.816C280.033 100.536 279.417 100.228 278.913 99.892C278.437 99.556 278.003 99.206 277.611 98.842V97.876L281.769 93.886L285.087 94.978L280.551 98.716L281.097 97.12C281.405 97.344 281.699 97.554 281.979 97.75C282.259 97.946 282.637 98.128 283.113 98.296C283.617 98.436 284.303 98.576 285.171 98.716C286.067 98.856 287.243 98.982 288.699 99.094C290.715 99.234 292.325 99.57 293.529 100.102C294.733 100.634 295.601 101.376 296.133 102.328C296.665 103.252 296.931 104.386 296.931 105.73C296.931 106.906 296.595 108.026 295.923 109.09C295.279 110.154 294.243 111.022 292.815 111.694C291.415 112.394 289.595 112.744 287.355 112.744ZM287.313 96.112C285.521 96.112 283.995 95.776 282.735 95.104C281.503 94.404 280.565 93.466 279.921 92.29C279.277 91.086 278.955 89.742 278.955 88.258C278.955 86.774 279.277 85.444 279.921 84.268C280.593 83.092 281.545 82.154 282.777 81.454C284.037 80.754 285.549 80.404 287.313 80.404C289.133 80.404 290.659 80.754 291.891 81.454C293.123 82.154 294.061 83.092 294.705 84.268C295.349 85.444 295.671 86.774 295.671 88.258C295.671 89.742 295.349 91.086 294.705 92.29C294.061 93.466 293.123 94.404 291.891 95.104C290.659 95.776 289.133 96.112 287.313 96.112ZM287.313 93.214C288.881 93.214 290.099 92.808 290.967 91.996C291.835 91.156 292.269 89.91 292.269 88.258C292.269 86.606 291.835 85.374 290.967 84.562C290.099 83.75 288.881 83.344 287.313 83.344C285.829 83.344 284.611 83.75 283.659 84.562C282.735 85.374 282.273 86.606 282.273 88.258C282.273 89.91 282.721 91.156 283.617 91.996C284.541 92.808 285.773 93.214 287.313 93.214ZM291.009 83.89L289.959 80.908H298.611V83.554L291.009 83.89ZM310.799 103.504C309.175 103.504 307.761 103.196 306.557 102.58C305.353 101.964 304.415 101.026 303.743 99.766C303.071 98.478 302.735 96.882 302.735 94.978V80.908H306.263V94.6C306.263 96.56 306.739 98.03 307.691 99.01C308.671 99.99 309.973 100.48 311.597 100.48C312.717 100.48 313.725 100.228 314.621 99.724C315.517 99.192 316.231 98.422 316.763 97.414C317.323 96.406 317.603 95.174 317.603 93.718V80.908H321.131V103H317.939L317.729 99.472C317.141 100.76 316.231 101.754 314.999 102.454C313.795 103.154 312.395 103.504 310.799 103.504ZM335.081 103.504C333.093 103.504 331.441 103.21 330.125 102.622C328.837 102.006 327.857 101.166 327.185 100.102C326.513 99.01 326.107 97.75 325.967 96.322H329.579C329.691 97.078 329.943 97.778 330.335 98.422C330.755 99.038 331.357 99.542 332.141 99.934C332.925 100.326 333.919 100.522 335.123 100.522C336.075 100.522 336.887 100.382 337.559 100.102C338.231 99.794 338.735 99.374 339.071 98.842C339.435 98.31 339.617 97.694 339.617 96.994C339.617 96.07 339.407 95.356 338.987 94.852C338.595 94.32 338.007 93.928 337.223 93.676C336.467 93.396 335.515 93.186 334.367 93.046C333.135 92.878 332.043 92.64 331.091 92.332C330.139 92.024 329.327 91.618 328.655 91.114C328.011 90.61 327.521 89.98 327.185 89.224C326.849 88.468 326.681 87.572 326.681 86.536C326.681 85.332 327.003 84.268 327.647 83.344C328.291 82.42 329.201 81.706 330.377 81.202C331.581 80.67 332.995 80.404 334.619 80.404C336.999 80.404 338.875 80.95 340.247 82.042C341.647 83.134 342.473 84.688 342.725 86.704H339.239C339.099 85.668 338.623 84.856 337.811 84.268C336.999 83.68 335.921 83.386 334.577 83.386C333.149 83.386 332.071 83.652 331.343 84.184C330.615 84.716 330.251 85.416 330.251 86.284C330.251 86.928 330.405 87.516 330.713 88.048C331.049 88.552 331.609 88.986 332.393 89.35C333.177 89.686 334.227 89.938 335.543 90.106C337.195 90.302 338.595 90.624 339.743 91.072C340.891 91.492 341.759 92.15 342.347 93.046C342.963 93.942 343.257 95.16 343.229 96.7C343.229 98.156 342.879 99.388 342.179 100.396C341.507 101.404 340.555 102.174 339.323 102.706C338.119 103.238 336.705 103.504 335.081 103.504ZM356.095 103C354.835 103 353.743 102.804 352.819 102.412C351.895 102.02 351.181 101.362 350.677 100.438C350.201 99.486 349.963 98.212 349.963 96.616V83.89H346.099V80.908H349.963L350.425 75.406H353.491V80.908H359.749V83.89H353.491V96.616C353.491 97.932 353.757 98.828 354.289 99.304C354.821 99.752 355.759 99.976 357.103 99.976H359.665V103H356.095ZM385.529 103.504C383.373 103.504 381.497 103.112 379.901 102.328C378.305 101.544 377.073 100.452 376.205 99.052C375.337 97.652 374.903 96.028 374.903 94.18H378.599C378.599 95.328 378.865 96.392 379.397 97.372C379.929 98.324 380.699 99.094 381.707 99.682C382.743 100.242 384.017 100.522 385.529 100.522C386.845 100.522 387.965 100.312 388.889 99.892C389.841 99.444 390.555 98.842 391.031 98.086C391.535 97.33 391.787 96.476 391.787 95.524C391.787 94.46 391.549 93.578 391.073 92.878C390.625 92.15 389.995 91.562 389.183 91.114C388.371 90.638 387.433 90.218 386.369 89.854C385.305 89.49 384.157 89.112 382.925 88.72C380.461 87.936 378.669 86.956 377.549 85.78C376.457 84.576 375.911 83.036 375.911 81.16C375.911 79.564 376.275 78.164 377.003 76.96C377.759 75.756 378.823 74.818 380.195 74.146C381.595 73.446 383.247 73.096 385.151 73.096C387.027 73.096 388.651 73.446 390.023 74.146C391.423 74.846 392.515 75.812 393.299 77.044C394.083 78.248 394.475 79.648 394.475 81.244H390.779C390.779 80.432 390.569 79.634 390.149 78.85C389.729 78.066 389.085 77.422 388.217 76.918C387.377 76.386 386.313 76.12 385.025 76.12C383.961 76.092 383.009 76.274 382.169 76.666C381.357 77.03 380.713 77.562 380.237 78.262C379.789 78.962 379.565 79.816 379.565 80.824C379.565 81.776 379.761 82.546 380.153 83.134C380.573 83.722 381.161 84.226 381.917 84.646C382.701 85.038 383.611 85.402 384.647 85.738C385.683 86.074 386.831 86.452 388.091 86.872C389.519 87.348 390.779 87.936 391.871 88.636C392.991 89.308 393.859 90.176 394.475 91.24C395.119 92.304 395.441 93.662 395.441 95.314C395.441 96.714 395.063 98.044 394.307 99.304C393.579 100.536 392.487 101.544 391.031 102.328C389.575 103.112 387.741 103.504 385.529 103.504ZM407.366 103.504C405.686 103.504 404.286 103.196 403.166 102.58C402.046 101.936 401.206 101.096 400.646 100.06C400.086 98.996 399.806 97.862 399.806 96.658C399.806 95.202 400.17 93.97 400.898 92.962C401.654 91.926 402.704 91.142 404.048 90.61C405.392 90.078 406.96 89.812 408.752 89.812H414.254C414.254 88.384 414.086 87.194 413.75 86.242C413.414 85.29 412.868 84.576 412.112 84.1C411.356 83.624 410.348 83.386 409.088 83.386C407.828 83.386 406.75 83.708 405.854 84.352C404.958 84.968 404.398 85.892 404.174 87.124H400.562C400.73 85.668 401.22 84.45 402.032 83.47C402.844 82.462 403.866 81.706 405.098 81.202C406.358 80.67 407.688 80.404 409.088 80.404C411.076 80.404 412.714 80.768 414.002 81.496C415.29 82.196 416.242 83.19 416.858 84.478C417.474 85.738 417.782 87.236 417.782 88.972V103H414.632L414.422 99.22C414.142 99.808 413.778 100.368 413.33 100.9C412.91 101.404 412.406 101.852 411.818 102.244C411.23 102.636 410.558 102.944 409.802 103.168C409.074 103.392 408.262 103.504 407.366 103.504ZM407.87 100.522C408.794 100.522 409.648 100.312 410.432 99.892C411.216 99.472 411.888 98.912 412.448 98.212C413.036 97.484 413.484 96.672 413.792 95.776C414.1 94.88 414.254 93.942 414.254 92.962V92.542H409.046C407.73 92.542 406.652 92.71 405.812 93.046C405 93.382 404.412 93.858 404.048 94.474C403.684 95.062 403.502 95.734 403.502 96.49C403.502 97.302 403.67 98.016 404.006 98.632C404.342 99.22 404.832 99.682 405.476 100.018C406.148 100.354 406.946 100.522 407.87 100.522ZM423.611 103V72.76H427.139V103H423.611ZM442.242 103.504C440.282 103.504 438.546 103.028 437.034 102.076C435.522 101.124 434.332 99.78 433.464 98.044C432.624 96.308 432.204 94.278 432.204 91.954C432.204 89.63 432.624 87.6 433.464 85.864C434.332 84.128 435.522 82.784 437.034 81.832C438.574 80.88 440.338 80.404 442.326 80.404C444.454 80.404 446.232 80.88 447.66 81.832C449.088 82.784 450.166 84.058 450.894 85.654C451.622 87.25 451.986 89 451.986 90.904C451.986 91.184 451.986 91.464 451.986 91.744C451.986 92.024 451.972 92.36 451.944 92.752H434.85V90.022H448.542C448.486 87.866 447.856 86.228 446.652 85.108C445.476 83.96 444.006 83.386 442.242 83.386C441.066 83.386 439.974 83.68 438.966 84.268C437.986 84.828 437.188 85.668 436.572 86.788C435.956 87.908 435.648 89.308 435.648 90.988V92.164C435.648 94.012 435.956 95.566 436.572 96.826C437.188 98.058 437.986 98.982 438.966 99.598C439.974 100.214 441.066 100.522 442.242 100.522C443.81 100.522 445.042 100.228 445.938 99.64C446.834 99.024 447.492 98.156 447.912 97.036H451.398C451.062 98.268 450.474 99.374 449.634 100.354C448.822 101.334 447.786 102.104 446.526 102.664C445.294 103.224 443.866 103.504 442.242 103.504ZM464.855 103.504C462.867 103.504 461.215 103.21 459.899 102.622C458.611 102.006 457.631 101.166 456.959 100.102C456.287 99.01 455.881 97.75 455.741 96.322H459.353C459.465 97.078 459.717 97.778 460.109 98.422C460.529 99.038 461.131 99.542 461.915 99.934C462.699 100.326 463.693 100.522 464.897 100.522C465.849 100.522 466.661 100.382 467.333 100.102C468.005 99.794 468.509 99.374 468.845 98.842C469.209 98.31 469.391 97.694 469.391 96.994C469.391 96.07 469.181 95.356 468.761 94.852C468.369 94.32 467.781 93.928 466.997 93.676C466.241 93.396 465.289 93.186 464.141 93.046C462.909 92.878 461.817 92.64 460.865 92.332C459.913 92.024 459.101 91.618 458.429 91.114C457.785 90.61 457.295 89.98 456.959 89.224C456.623 88.468 456.455 87.572 456.455 86.536C456.455 85.332 456.777 84.268 457.421 83.344C458.065 82.42 458.975 81.706 460.151 81.202C461.355 80.67 462.769 80.404 464.393 80.404C466.773 80.404 468.649 80.95 470.021 82.042C471.421 83.134 472.247 84.688 472.499 86.704H469.013C468.873 85.668 468.397 84.856 467.585 84.268C466.773 83.68 465.695 83.386 464.351 83.386C462.923 83.386 461.845 83.652 461.117 84.184C460.389 84.716 460.025 85.416 460.025 86.284C460.025 86.928 460.179 87.516 460.487 88.048C460.823 88.552 461.383 88.986 462.167 89.35C462.951 89.686 464.001 89.938 465.317 90.106C466.969 90.302 468.369 90.624 469.517 91.072C470.665 91.492 471.533 92.15 472.121 93.046C472.737 93.942 473.031 95.16 473.003 96.7C473.003 98.156 472.653 99.388 471.953 100.396C471.281 101.404 470.329 102.174 469.097 102.706C467.893 103.238 466.479 103.504 464.855 103.504ZM479.63 103.21C478.958 103.21 478.384 102.986 477.908 102.538C477.46 102.062 477.236 101.488 477.236 100.816C477.236 100.144 477.46 99.584 477.908 99.136C478.384 98.66 478.958 98.422 479.63 98.422C480.358 98.422 480.932 98.66 481.352 99.136C481.8 99.584 482.024 100.144 482.024 100.816C482.024 101.488 481.8 102.062 481.352 102.538C480.932 102.986 480.358 103.21 479.63 103.21ZM486.98 112.24V80.908H490.172L490.466 84.352C490.914 83.624 491.474 82.966 492.146 82.378C492.846 81.79 493.672 81.314 494.624 80.95C495.604 80.586 496.724 80.404 497.984 80.404C499.972 80.404 501.708 80.908 503.192 81.916C504.704 82.924 505.88 84.296 506.72 86.032C507.56 87.768 507.98 89.756 507.98 91.996C507.98 94.208 507.56 96.182 506.72 97.918C505.88 99.654 504.704 101.026 503.192 102.034C501.68 103.014 499.93 103.504 497.942 103.504C496.234 103.504 494.736 103.154 493.448 102.454C492.16 101.754 491.18 100.774 490.508 99.514V112.24H486.98ZM497.522 100.438C498.838 100.438 500 100.102 501.008 99.43C502.044 98.73 502.856 97.75 503.444 96.49C504.06 95.202 504.368 93.69 504.368 91.954C504.368 90.218 504.06 88.72 503.444 87.46C502.856 86.172 502.044 85.192 501.008 84.52C500 83.82 498.838 83.47 497.522 83.47C496.122 83.47 494.904 83.82 493.868 84.52C492.832 85.192 492.034 86.172 491.474 87.46C490.914 88.72 490.634 90.218 490.634 91.954C490.634 93.69 490.914 95.202 491.474 96.49C492.034 97.75 492.832 98.73 493.868 99.43C494.904 100.102 496.122 100.438 497.522 100.438ZM522.221 103.504C520.261 103.504 518.525 103 517.013 101.992C515.501 100.984 514.325 99.612 513.485 97.876C512.645 96.112 512.225 94.124 512.225 91.912C512.225 89.672 512.645 87.698 513.485 85.99C514.325 84.254 515.501 82.896 517.013 81.916C518.525 80.908 520.275 80.404 522.263 80.404C523.999 80.404 525.483 80.754 526.715 81.454C527.975 82.154 528.969 83.134 529.697 84.394V72.76H533.225V103H530.033L529.739 99.472C529.319 100.172 528.759 100.83 528.059 101.446C527.387 102.062 526.561 102.566 525.581 102.958C524.629 103.322 523.509 103.504 522.221 103.504ZM522.683 100.438C524.083 100.438 525.301 100.102 526.337 99.43C527.373 98.73 528.171 97.75 528.731 96.49C529.291 95.202 529.571 93.69 529.571 91.954C529.571 90.218 529.291 88.72 528.731 87.46C528.171 86.172 527.373 85.192 526.337 84.52C525.301 83.82 524.083 83.47 522.683 83.47C521.367 83.47 520.191 83.82 519.155 84.52C518.119 85.192 517.307 86.172 516.719 87.46C516.131 88.72 515.837 90.218 515.837 91.954C515.837 93.69 516.131 95.202 516.719 96.49C517.307 97.75 518.119 98.73 519.155 99.43C520.191 100.102 521.367 100.438 522.683 100.438ZM540.579 103V78.556C540.579 77.212 540.803 76.12 541.251 75.28C541.699 74.412 542.357 73.782 543.225 73.39C544.121 72.97 545.213 72.76 546.501 72.76H549.735V75.784H547.089C546.025 75.784 545.255 76.008 544.779 76.456C544.331 76.876 544.107 77.618 544.107 78.682V103H540.579ZM537.135 83.89V80.908H549.987V83.89H537.135Z" fill="white"/>
<rect x="224" y="147" width="405" height="20" rx="10" fill="#2C2C2C"/>
<circle cx="118.5" cy="292.5" r="59.5" fill="#3B82F6"/>
<path d="M118.5 302.384C118.142 302.384 117.806 302.33 117.492 302.222C117.179 302.113 116.887 301.927 116.619 301.662L106.944 292.213C106.406 291.688 106.148 291.075 106.17 290.375C106.191 289.675 106.449 289.063 106.944 288.538C107.481 288.013 108.12 287.74 108.86 287.719C109.6 287.698 110.238 287.949 110.773 288.472L115.812 293.394V274.625C115.812 273.881 116.07 273.258 116.586 272.756C117.102 272.254 117.74 272.002 118.5 272C119.26 271.998 119.898 272.25 120.416 272.756C120.934 273.262 121.191 273.885 121.187 274.625V293.394L126.227 288.472C126.764 287.947 127.403 287.695 128.143 287.716C128.883 287.737 129.521 288.011 130.056 288.538C130.549 289.063 130.807 289.675 130.83 290.375C130.854 291.075 130.596 291.688 130.056 292.213L120.381 301.662C120.112 301.925 119.821 302.111 119.508 302.222C119.194 302.332 118.858 302.386 118.5 302.384ZM102.375 314C100.897 314 99.632 313.486 98.5802 312.459C97.5285 311.432 97.0018 310.195 97 308.75V303.5C97 302.756 97.258 302.133 97.774 301.631C98.29 301.129 98.9278 300.877 99.6875 300.875C100.447 300.873 101.086 301.125 101.604 301.631C102.121 302.137 102.379 302.76 102.375 303.5V308.75H134.625V303.5C134.625 302.756 134.883 302.133 135.399 301.631C135.915 301.129 136.553 300.877 137.312 300.875C138.072 300.873 138.711 301.125 139.229 301.631C139.746 302.137 140.004 302.76 140 303.5V308.75C140 310.194 139.474 311.43 138.422 312.459C137.371 313.488 136.105 314.002 134.625 314H102.375Z" fill="white"/>
<path d="M227.234 279V249.6H231.35L241.346 270.306L251.258 249.6H255.416V279H251.888V255.942L242.648 275.136H240.002L230.762 256.11V279H227.234ZM271.132 279.504C269.088 279.504 267.282 279.028 265.714 278.076C264.146 277.124 262.928 275.78 262.06 274.044C261.192 272.308 260.758 270.278 260.758 267.954C260.758 265.602 261.192 263.572 262.06 261.864C262.956 260.128 264.188 258.784 265.756 257.832C267.352 256.88 269.172 256.404 271.216 256.404C273.288 256.404 275.094 256.88 276.634 257.832C278.202 258.784 279.42 260.128 280.288 261.864C281.156 263.572 281.59 265.602 281.59 267.954C281.59 270.278 281.142 272.308 280.246 274.044C279.378 275.78 278.16 277.124 276.592 278.076C275.024 279.028 273.204 279.504 271.132 279.504ZM271.132 276.48C272.42 276.48 273.582 276.172 274.618 275.556C275.654 274.912 276.466 273.96 277.054 272.7C277.67 271.412 277.978 269.83 277.978 267.954C277.978 266.05 277.684 264.468 277.096 263.208C276.508 261.948 275.696 261.01 274.66 260.394C273.652 259.75 272.504 259.428 271.216 259.428C269.956 259.428 268.808 259.75 267.772 260.394C266.736 261.01 265.91 261.948 265.294 263.208C264.678 264.468 264.37 266.05 264.37 267.954C264.37 269.83 264.664 271.412 265.252 272.7C265.868 273.96 266.68 274.912 267.688 275.556C268.724 276.172 269.872 276.48 271.132 276.48ZM286.701 279V256.908H289.893L290.145 260.94C290.649 259.932 291.307 259.092 292.119 258.42C292.931 257.748 293.911 257.244 295.059 256.908C296.235 256.572 297.551 256.404 299.007 256.404V260.1H296.823C295.983 260.1 295.171 260.212 294.387 260.436C293.603 260.66 292.889 261.024 292.245 261.528C291.629 262.032 291.139 262.718 290.775 263.586C290.411 264.454 290.229 265.546 290.229 266.862V279H286.701ZM311.226 288.744C309.238 288.744 307.488 288.492 305.976 287.988C304.492 287.512 303.33 286.77 302.49 285.762C301.678 284.754 301.272 283.508 301.272 282.024C301.272 281.324 301.398 280.596 301.65 279.84C301.93 279.084 302.392 278.356 303.036 277.656C303.708 276.956 304.646 276.326 305.85 275.766L308.538 277.194C306.942 277.81 305.906 278.524 305.43 279.336C304.954 280.148 304.716 280.932 304.716 281.688C304.716 282.612 304.982 283.382 305.514 283.998C306.074 284.614 306.844 285.076 307.824 285.384C308.804 285.692 309.938 285.846 311.226 285.846C312.486 285.846 313.564 285.678 314.46 285.342C315.384 285.034 316.084 284.572 316.56 283.956C317.064 283.368 317.316 282.668 317.316 281.856C317.316 280.68 316.938 279.756 316.182 279.084C315.426 278.44 313.956 278.062 311.772 277.95C310.064 277.838 308.636 277.684 307.488 277.488C306.34 277.292 305.388 277.068 304.632 276.816C303.904 276.536 303.288 276.228 302.784 275.892C302.308 275.556 301.874 275.206 301.482 274.842V273.876L305.64 269.886L308.958 270.978L304.422 274.716L304.968 273.12C305.276 273.344 305.57 273.554 305.85 273.75C306.13 273.946 306.508 274.128 306.984 274.296C307.488 274.436 308.174 274.576 309.042 274.716C309.938 274.856 311.114 274.982 312.57 275.094C314.586 275.234 316.196 275.57 317.4 276.102C318.604 276.634 319.472 277.376 320.004 278.328C320.536 279.252 320.802 280.386 320.802 281.73C320.802 282.906 320.466 284.026 319.794 285.09C319.15 286.154 318.114 287.022 316.686 287.694C315.286 288.394 313.466 288.744 311.226 288.744ZM311.184 272.112C309.392 272.112 307.866 271.776 306.606 271.104C305.374 270.404 304.436 269.466 303.792 268.29C303.148 267.086 302.826 265.742 302.826 264.258C302.826 262.774 303.148 261.444 303.792 260.268C304.464 259.092 305.416 258.154 306.648 257.454C307.908 256.754 309.42 256.404 311.184 256.404C313.004 256.404 314.53 256.754 315.762 257.454C316.994 258.154 317.932 259.092 318.576 260.268C319.22 261.444 319.542 262.774 319.542 264.258C319.542 265.742 319.22 267.086 318.576 268.29C317.932 269.466 316.994 270.404 315.762 271.104C314.53 271.776 313.004 272.112 311.184 272.112ZM311.184 269.214C312.752 269.214 313.97 268.808 314.838 267.996C315.706 267.156 316.14 265.91 316.14 264.258C316.14 262.606 315.706 261.374 314.838 260.562C313.97 259.75 312.752 259.344 311.184 259.344C309.7 259.344 308.482 259.75 307.53 260.562C306.606 261.374 306.144 262.606 306.144 264.258C306.144 265.91 306.592 267.156 307.488 267.996C308.412 268.808 309.644 269.214 311.184 269.214ZM314.88 259.89L313.83 256.908H322.482V259.554L314.88 259.89ZM333.62 279.504C331.94 279.504 330.54 279.196 329.42 278.58C328.3 277.936 327.46 277.096 326.9 276.06C326.34 274.996 326.06 273.862 326.06 272.658C326.06 271.202 326.424 269.97 327.152 268.962C327.908 267.926 328.958 267.142 330.302 266.61C331.646 266.078 333.214 265.812 335.006 265.812H340.508C340.508 264.384 340.34 263.194 340.004 262.242C339.668 261.29 339.122 260.576 338.366 260.1C337.61 259.624 336.602 259.386 335.342 259.386C334.082 259.386 333.004 259.708 332.108 260.352C331.212 260.968 330.652 261.892 330.428 263.124H326.816C326.984 261.668 327.474 260.45 328.286 259.47C329.098 258.462 330.12 257.706 331.352 257.202C332.612 256.67 333.942 256.404 335.342 256.404C337.33 256.404 338.968 256.768 340.256 257.496C341.544 258.196 342.496 259.19 343.112 260.478C343.728 261.738 344.036 263.236 344.036 264.972V279H340.886L340.676 275.22C340.396 275.808 340.032 276.368 339.584 276.9C339.164 277.404 338.66 277.852 338.072 278.244C337.484 278.636 336.812 278.944 336.056 279.168C335.328 279.392 334.516 279.504 333.62 279.504ZM334.124 276.522C335.048 276.522 335.902 276.312 336.686 275.892C337.47 275.472 338.142 274.912 338.702 274.212C339.29 273.484 339.738 272.672 340.046 271.776C340.354 270.88 340.508 269.942 340.508 268.962V268.542H335.3C333.984 268.542 332.906 268.71 332.066 269.046C331.254 269.382 330.666 269.858 330.302 270.474C329.938 271.062 329.756 271.734 329.756 272.49C329.756 273.302 329.924 274.016 330.26 274.632C330.596 275.22 331.086 275.682 331.73 276.018C332.402 276.354 333.2 276.522 334.124 276.522ZM349.865 279V256.908H353.057L353.225 260.394C353.869 259.134 354.793 258.154 355.997 257.454C357.229 256.754 358.643 256.404 360.239 256.404C361.863 256.404 363.277 256.712 364.481 257.328C365.685 257.944 366.623 258.882 367.295 260.142C367.967 261.402 368.303 262.998 368.303 264.93V279H364.775V265.308C364.775 263.348 364.285 261.878 363.305 260.898C362.353 259.918 361.065 259.428 359.441 259.428C358.349 259.428 357.341 259.694 356.417 260.226C355.493 260.73 354.751 261.486 354.191 262.494C353.659 263.502 353.393 264.734 353.393 266.19V279H349.865ZM395.085 279.504C392.929 279.504 391.053 279.112 389.457 278.328C387.861 277.544 386.629 276.452 385.761 275.052C384.893 273.652 384.459 272.028 384.459 270.18H388.155C388.155 271.328 388.421 272.392 388.953 273.372C389.485 274.324 390.255 275.094 391.263 275.682C392.299 276.242 393.573 276.522 395.085 276.522C396.401 276.522 397.521 276.312 398.445 275.892C399.397 275.444 400.111 274.842 400.587 274.086C401.091 273.33 401.343 272.476 401.343 271.524C401.343 270.46 401.105 269.578 400.629 268.878C400.181 268.15 399.551 267.562 398.739 267.114C397.927 266.638 396.989 266.218 395.925 265.854C394.861 265.49 393.713 265.112 392.481 264.72C390.017 263.936 388.225 262.956 387.105 261.78C386.013 260.576 385.467 259.036 385.467 257.16C385.467 255.564 385.831 254.164 386.559 252.96C387.315 251.756 388.379 250.818 389.751 250.146C391.151 249.446 392.803 249.096 394.707 249.096C396.583 249.096 398.207 249.446 399.579 250.146C400.979 250.846 402.071 251.812 402.855 253.044C403.639 254.248 404.031 255.648 404.031 257.244H400.335C400.335 256.432 400.125 255.634 399.705 254.85C399.285 254.066 398.641 253.422 397.773 252.918C396.933 252.386 395.869 252.12 394.581 252.12C393.517 252.092 392.565 252.274 391.725 252.666C390.913 253.03 390.269 253.562 389.793 254.262C389.345 254.962 389.121 255.816 389.121 256.824C389.121 257.776 389.317 258.546 389.709 259.134C390.129 259.722 390.717 260.226 391.473 260.646C392.257 261.038 393.167 261.402 394.203 261.738C395.239 262.074 396.387 262.452 397.647 262.872C399.075 263.348 400.335 263.936 401.427 264.636C402.547 265.308 403.415 266.176 404.031 267.24C404.675 268.304 404.997 269.662 404.997 271.314C404.997 272.714 404.619 274.044 403.863 275.304C403.135 276.536 402.043 277.544 400.587 278.328C399.131 279.112 397.297 279.504 395.085 279.504ZM416.923 279.504C415.243 279.504 413.843 279.196 412.723 278.58C411.603 277.936 410.763 277.096 410.203 276.06C409.643 274.996 409.363 273.862 409.363 272.658C409.363 271.202 409.727 269.97 410.455 268.962C411.211 267.926 412.261 267.142 413.605 266.61C414.949 266.078 416.517 265.812 418.309 265.812H423.811C423.811 264.384 423.643 263.194 423.307 262.242C422.971 261.29 422.425 260.576 421.669 260.1C420.913 259.624 419.905 259.386 418.645 259.386C417.385 259.386 416.307 259.708 415.411 260.352C414.515 260.968 413.955 261.892 413.731 263.124H410.119C410.287 261.668 410.777 260.45 411.589 259.47C412.401 258.462 413.423 257.706 414.655 257.202C415.915 256.67 417.245 256.404 418.645 256.404C420.633 256.404 422.271 256.768 423.559 257.496C424.847 258.196 425.799 259.19 426.415 260.478C427.031 261.738 427.339 263.236 427.339 264.972V279H424.189L423.979 275.22C423.699 275.808 423.335 276.368 422.887 276.9C422.467 277.404 421.963 277.852 421.375 278.244C420.787 278.636 420.115 278.944 419.359 279.168C418.631 279.392 417.819 279.504 416.923 279.504ZM417.427 276.522C418.351 276.522 419.205 276.312 419.989 275.892C420.773 275.472 421.445 274.912 422.005 274.212C422.593 273.484 423.041 272.672 423.349 271.776C423.657 270.88 423.811 269.942 423.811 268.962V268.542H418.603C417.287 268.542 416.209 268.71 415.369 269.046C414.557 269.382 413.969 269.858 413.605 270.474C413.241 271.062 413.059 271.734 413.059 272.49C413.059 273.302 413.227 274.016 413.563 274.632C413.899 275.22 414.389 275.682 415.033 276.018C415.705 276.354 416.503 276.522 417.427 276.522ZM433.168 279V248.76H436.696V279H433.168ZM451.798 279.504C449.838 279.504 448.102 279.028 446.59 278.076C445.078 277.124 443.888 275.78 443.02 274.044C442.18 272.308 441.76 270.278 441.76 267.954C441.76 265.63 442.18 263.6 443.02 261.864C443.888 260.128 445.078 258.784 446.59 257.832C448.13 256.88 449.894 256.404 451.882 256.404C454.01 256.404 455.788 256.88 457.216 257.832C458.644 258.784 459.722 260.058 460.45 261.654C461.178 263.25 461.542 265 461.542 266.904C461.542 267.184 461.542 267.464 461.542 267.744C461.542 268.024 461.528 268.36 461.5 268.752H444.406V266.022H458.098C458.042 263.866 457.412 262.228 456.208 261.108C455.032 259.96 453.562 259.386 451.798 259.386C450.622 259.386 449.53 259.68 448.522 260.268C447.542 260.828 446.744 261.668 446.128 262.788C445.512 263.908 445.204 265.308 445.204 266.988V268.164C445.204 270.012 445.512 271.566 446.128 272.826C446.744 274.058 447.542 274.982 448.522 275.598C449.53 276.214 450.622 276.522 451.798 276.522C453.366 276.522 454.598 276.228 455.494 275.64C456.39 275.024 457.048 274.156 457.468 273.036H460.954C460.618 274.268 460.03 275.374 459.19 276.354C458.378 277.334 457.342 278.104 456.082 278.664C454.85 279.224 453.422 279.504 451.798 279.504ZM474.411 279.504C472.423 279.504 470.771 279.21 469.455 278.622C468.167 278.006 467.187 277.166 466.515 276.102C465.843 275.01 465.437 273.75 465.297 272.322H468.909C469.021 273.078 469.273 273.778 469.665 274.422C470.085 275.038 470.687 275.542 471.471 275.934C472.255 276.326 473.249 276.522 474.453 276.522C475.405 276.522 476.217 276.382 476.889 276.102C477.561 275.794 478.065 275.374 478.401 274.842C478.765 274.31 478.947 273.694 478.947 272.994C478.947 272.07 478.737 271.356 478.317 270.852C477.925 270.32 477.337 269.928 476.553 269.676C475.797 269.396 474.845 269.186 473.697 269.046C472.465 268.878 471.373 268.64 470.421 268.332C469.469 268.024 468.657 267.618 467.985 267.114C467.341 266.61 466.851 265.98 466.515 265.224C466.179 264.468 466.011 263.572 466.011 262.536C466.011 261.332 466.333 260.268 466.977 259.344C467.621 258.42 468.531 257.706 469.707 257.202C470.911 256.67 472.325 256.404 473.949 256.404C476.329 256.404 478.205 256.95 479.577 258.042C480.977 259.134 481.803 260.688 482.055 262.704H478.569C478.429 261.668 477.953 260.856 477.141 260.268C476.329 259.68 475.251 259.386 473.907 259.386C472.479 259.386 471.401 259.652 470.673 260.184C469.945 260.716 469.581 261.416 469.581 262.284C469.581 262.928 469.735 263.516 470.043 264.048C470.379 264.552 470.939 264.986 471.723 265.35C472.507 265.686 473.557 265.938 474.873 266.106C476.525 266.302 477.925 266.624 479.073 267.072C480.221 267.492 481.089 268.15 481.677 269.046C482.293 269.942 482.587 271.16 482.559 272.7C482.559 274.156 482.209 275.388 481.509 276.396C480.837 277.404 479.885 278.174 478.653 278.706C477.449 279.238 476.035 279.504 474.411 279.504ZM489.186 279.21C488.514 279.21 487.94 278.986 487.464 278.538C487.016 278.062 486.792 277.488 486.792 276.816C486.792 276.144 487.016 275.584 487.464 275.136C487.94 274.66 488.514 274.422 489.186 274.422C489.914 274.422 490.488 274.66 490.908 275.136C491.356 275.584 491.58 276.144 491.58 276.816C491.58 277.488 491.356 278.062 490.908 278.538C490.488 278.986 489.914 279.21 489.186 279.21ZM496.537 288.24V256.908H499.729L500.023 260.352C500.471 259.624 501.031 258.966 501.703 258.378C502.403 257.79 503.229 257.314 504.181 256.95C505.161 256.586 506.281 256.404 507.541 256.404C509.529 256.404 511.265 256.908 512.749 257.916C514.261 258.924 515.437 260.296 516.277 262.032C517.117 263.768 517.537 265.756 517.537 267.996C517.537 270.208 517.117 272.182 516.277 273.918C515.437 275.654 514.261 277.026 512.749 278.034C511.237 279.014 509.487 279.504 507.499 279.504C505.791 279.504 504.293 279.154 503.005 278.454C501.717 277.754 500.737 276.774 500.065 275.514V288.24H496.537ZM507.079 276.438C508.395 276.438 509.557 276.102 510.565 275.43C511.601 274.73 512.413 273.75 513.001 272.49C513.617 271.202 513.925 269.69 513.925 267.954C513.925 266.218 513.617 264.72 513.001 263.46C512.413 262.172 511.601 261.192 510.565 260.52C509.557 259.82 508.395 259.47 507.079 259.47C505.679 259.47 504.461 259.82 503.425 260.52C502.389 261.192 501.591 262.172 501.031 263.46C500.471 264.72 500.191 266.218 500.191 267.954C500.191 269.69 500.471 271.202 501.031 272.49C501.591 273.75 502.389 274.73 503.425 275.43C504.461 276.102 505.679 276.438 507.079 276.438ZM531.778 279.504C529.818 279.504 528.082 279 526.57 277.992C525.058 276.984 523.882 275.612 523.042 273.876C522.202 272.112 521.782 270.124 521.782 267.912C521.782 265.672 522.202 263.698 523.042 261.99C523.882 260.254 525.058 258.896 526.57 257.916C528.082 256.908 529.832 256.404 531.82 256.404C533.556 256.404 535.04 256.754 536.272 257.454C537.532 258.154 538.526 259.134 539.254 260.394V248.76H542.782V279H539.59L539.296 275.472C538.876 276.172 538.316 276.83 537.616 277.446C536.944 278.062 536.118 278.566 535.138 278.958C534.186 279.322 533.066 279.504 531.778 279.504ZM532.24 276.438C533.64 276.438 534.858 276.102 535.894 275.43C536.93 274.73 537.728 273.75 538.288 272.49C538.848 271.202 539.128 269.69 539.128 267.954C539.128 266.218 538.848 264.72 538.288 263.46C537.728 262.172 536.93 261.192 535.894 260.52C534.858 259.82 533.64 259.47 532.24 259.47C530.924 259.47 529.748 259.82 528.712 260.52C527.676 261.192 526.864 262.172 526.276 263.46C525.688 264.72 525.394 266.218 525.394 267.954C525.394 269.69 525.688 271.202 526.276 272.49C526.864 273.75 527.676 274.73 528.712 275.43C529.748 276.102 530.924 276.438 532.24 276.438ZM550.136 279V254.556C550.136 253.212 550.36 252.12 550.808 251.28C551.256 250.412 551.914 249.782 552.782 249.39C553.678 248.97 554.77 248.76 556.058 248.76H559.292V251.784H556.646C555.582 251.784 554.812 252.008 554.336 252.456C553.888 252.876 553.664 253.618 553.664 254.682V279H550.136ZM546.692 259.89V256.908H559.544V259.89H546.692Z" fill="white"/>
<rect x="224" y="323" width="405" height="20" rx="10" fill="#2C2C2C"/>
</svg>
