<svg width="230" height="20" viewBox="0 0 230 20" fill="none" xmlns="http://www.w3.org/2000/svg">
<path d="M23.3598 0.682617V10.5452L9.54626 0.682617H0.0625V19.3213H9.10496V9.45447L22.9143 19.3213H32.4022V0.682617H23.3598Z" fill="#141515"/>
<path d="M140.441 7.30626C139.355 1.37787 137.057 0.953225 126.17 0.682617H108.83V19.3213H126.17C137.053 19.0506 139.351 18.626 140.441 12.6976C140.641 11.6027 140.641 8.40118 140.441 7.30626ZM131.536 11.4528C131.016 14.6501 129.925 14.2047 124.746 14.3504H117.873V5.65347H124.746C129.925 5.79919 131.02 5.35372 131.536 8.55106C131.632 9.13807 131.632 10.8658 131.536 11.457V11.4528Z" fill="#141515"/>
<path d="M68.7094 7.11074C67.6228 0.745212 65.3248 0.287261 54.438 0H50.662C39.7794 0.287261 37.4813 0.745212 36.3905 7.11074C36.1907 8.28476 36.1907 11.7194 36.3905 12.8934C37.4771 19.2548 39.7752 19.7127 50.662 20H54.438C65.3206 19.7127 67.6187 19.2548 68.7094 12.8934C68.9093 11.7194 68.9093 8.2806 68.7094 7.11074ZM59.8044 11.5612C59.2881 14.9917 58.1932 14.5129 53.0142 14.6669H52.09C46.9109 14.5129 45.816 14.9875 45.2998 11.5612C45.204 10.9284 45.204 9.07577 45.2998 8.44296C45.816 5.01249 46.9109 5.49126 52.09 5.33722H53.0142C58.1932 5.49126 59.2881 5.01665 59.8044 8.44296C59.9001 9.07577 59.9001 10.9284 59.8044 11.5612Z" fill="#141515"/>
<path d="M105.187 7.67263C105.187 3.01401 102.856 0.682617 95.8702 0.682617H72.7103V19.3213H81.7528V14.9332H90.4372L93.5721 19.3213H102.66L99.1716 14.4337C103.61 13.7509 105.187 11.4986 105.187 7.66846V7.67263ZM92.9102 9.99985H81.7486V5.61184H92.9102C95.483 5.61184 95.866 6.59436 95.866 7.80585C95.866 9.01734 95.483 9.99985 92.9102 9.99985Z" fill="#141515"/>
<path d="M216.749 0.811768L210.487 5.50785L204.226 0.811768H191.894L210.487 14.7543L229.076 0.811768H216.749Z" fill="#FF3535"/>
<path d="M210.487 7.26489L191.894 19.1883H204.226L210.487 15.1708L216.749 19.1883H229.076L210.487 7.26489Z" fill="#18C554"/>
<path d="M190.133 5.61184V0.682617H159.983V19.3213H169.026V13.9049H185.475V8.97154H169.026V5.61184H190.133Z" fill="#141515"/>
</svg>
